<svg xmlns="http://www.w3.org/2000/svg" viewBox="320 210 385 385">
<circle cx="512.5" cy="402.5" r="192" fill="#05070b"/>
<g transform="translate(0,1024) scale(0.1,-0.1)" fill="#c9d9e8" stroke="none">
<path d="M4780 7746 c-239 -43 -477 -137 -677 -269 -107 -71 -133 -94 -116 -105 6 -4 259 -248 563 -542 303 -294 556 -535 560 -535 9 0 186 168 710 674 151 146 310 299 352 340 l77 74 -44 34 c-208 159 -495 278 -815 338 -19 4 -134 9 -255 11 -198 3 -233 1 -355 -20z"/>
<path d="M3622 7024 c-371 -512 -444 -1192 -191 -1774 97 -222 229 -410 415 -590 l119 -115 3 843 c1 541 6 842 12 840 8 -2 456 -426 823 -777 l77 -74 0 285 0 285 -77 74 c-43 41 -206 198 -363 350 -369 357 -753 719 -762 719 -5 0 -29 -29 -56 -66z"/>
<path d="M6410 6967 c-69 -67 -269 -259 -445 -427 -176 -168 -390 -372 -476 -455 l-157 -150 5 -890 c3 -489 6 -891 7 -892 3 -3 167 28 245 48 155 38 377 135 517 224 298 191 550 480 685 788 37 84 102 268 96 273 -1 1 -265 5 -587 8 -322 4 -617 10 -657 14 l-72 7 360 363 359 362 315 0 c293 0 315 1 315 18 0 31 -48 215 -80 307 -41 116 -118 273 -182 372 -58 89 -107 153 -116 153 -4 0 -63 -55 -132 -123z"/>
</g>
</svg>
