<?xml version="1.0" standalone="no"?>
<!DOCTYPE svg PUBLIC "-//W3C//DTD SVG 20010904//EN"
 "http://www.w3.org/TR/2001/REC-SVG-20010904/DTD/svg10.dtd">
<svg version="1.0" xmlns="http://www.w3.org/2000/svg"
 width="1024.000000pt" height="1024.000000pt" viewBox="0 0 1024.000000 1024.000000"
 preserveAspectRatio="xMidYMid meet">
<metadata>
Created by potrace 1.16, written by Peter Selinger 2001-2019
</metadata>
<g transform="translate(0.000000,1024.000000) scale(0.100000,-0.100000)"
fill="#000000" stroke="none">
<path d="M4780 7746 c-239 -43 -477 -137 -677 -269 -107 -71 -133 -94 -116
-105 6 -4 259 -248 563 -542 303 -294 556 -535 560 -535 9 0 186 168 710 674
151 146 310 299 352 340 l77 74 -44 34 c-208 159 -495 278 -815 338 -19 4
-134 9 -255 11 -198 3 -233 1 -355 -20z"/>
<path d="M3622 7024 c-371 -512 -444 -1192 -191 -1774 97 -222 229 -410 415
-590 l119 -115 3 843 c1 541 6 842 12 840 8 -2 456 -426 823 -777 l77 -74 0
285 0 285 -77 74 c-43 41 -206 198 -363 350 -369 357 -753 719 -762 719 -5 0
-29 -29 -56 -66z"/>
<path d="M6410 6967 c-69 -67 -269 -259 -445 -427 -176 -168 -390 -372 -476
-455 l-157 -150 5 -890 c3 -489 6 -891 7 -892 3 -3 167 28 245 48 155 38 377
135 517 224 298 191 550 480 685 788 37 84 102 268 96 273 -1 1 -265 5 -587 8
-322 4 -617 10 -657 14 l-72 7 360 363 359 362 315 0 c293 0 315 1 315 18 0
31 -48 215 -80 307 -41 116 -118 273 -182 372 -58 89 -107 153 -116 153 -4 0
-63 -55 -132 -123z"/>
<path d="M2260 3140 l0 -220 50 0 51 0 -3 155 c-2 85 -1 155 2 155 3 0 14 -13
25 -28 10 -15 59 -75 108 -134 113 -137 122 -138 201 -40 30 37 80 99 112 137
31 39 59 71 63 73 3 1 5 -70 3 -158 l-3 -160 51 0 50 0 0 220 0 220 -59 0 -59
0 -93 -113 c-52 -61 -106 -127 -120 -145 l-25 -33 -119 145 -118 146 -59 0
-58 0 0 -220z"/>
<path d="M3302 3347 c-57 -18 -64 -40 -68 -203 -3 -162 5 -197 52 -214 36 -14
457 -13 487 1 40 18 47 49 47 212 0 173 -5 189 -68 207 -48 13 -407 11 -450
-3z m413 -86 c6 -6 8 -61 5 -133 l-5 -123 -179 -3 c-116 -1 -183 1 -190 8 -10
10 -10 236 1 253 6 11 357 9 368 -2z"/>
<path d="M4097 3353 c-4 -3 -7 -102 -7 -219 l0 -212 50 -4 50 -3 0 178 0 177
178 -2 177 -3 0 -50 0 -50 -45 -7 c-25 -3 -96 -7 -158 -7 l-113 -1 3 -36 3
-36 70 -4 c38 -3 72 -9 75 -13 3 -4 41 -39 86 -78 l80 -71 67 0 c37 0 67 4 67
9 0 5 -41 41 -91 81 l-91 73 52 5 c78 8 100 38 100 136 0 89 -15 119 -69 134
-40 11 -474 14 -484 3z"/>
<path d="M5033 3351 c-46 -4 -68 -12 -85 -29 -22 -22 -23 -29 -23 -188 l0
-166 28 -24 c28 -24 29 -24 268 -24 309 0 294 -13 287 242 -3 153 -10 169 -77
188 -38 10 -293 11 -398 1z m372 -216 l0 -130 -190 0 -190 0 -3 119 c-1 66 0
126 2 133 4 11 44 13 193 11 l188 -3 0 -130z"/>
<path d="M5770 3315 l0 -45 196 0 197 0 -74 -53 c-41 -29 -129 -89 -196 -133
l-123 -79 0 -48 0 -48 278 4 277 4 3 41 3 42 -175 0 c-106 0 -177 -4 -181 -10
-8 -12 -45 -13 -45 -1 0 4 26 25 58 46 31 21 121 83 200 139 l142 101 -2 40
-3 40 -277 3 -278 2 0 -45z"/>
<path d="M6661 3350 c-18 -4 -43 -18 -55 -29 -19 -20 -21 -34 -24 -172 -4
-166 3 -199 46 -219 36 -18 404 -26 461 -10 40 11 41 12 41 55 l0 45 -40 0
c-22 0 -40 -5 -40 -10 0 -7 -63 -10 -182 -8 l-183 3 0 130 0 130 223 0 223 -1
-3 46 -3 45 -215 2 c-118 1 -230 -2 -249 -7z"/>
<path d="M7500 3353 c-96 -16 -110 -45 -110 -222 0 -218 -2 -216 280 -217 113
-1 222 3 242 8 63 15 68 31 68 214 0 204 0 203 -121 215 -86 8 -314 10 -359 2z
m378 -95 c15 -15 16 -211 2 -239 -10 -18 -23 -19 -188 -19 -125 0 -182 4 -190
12 -15 15 -16 211 -2 239 10 18 23 19 188 19 125 0 182 -4 190 -12z"/>
</g>
</svg>
